<svg width="25" height="24" viewBox="0 0 25 24" fill="none" xmlns="http://www.w3.org/2000/svg">
<g id="clock-01">
<path id="Vector" d="M15.9504 15.3486C16.4744 15.5232 17.0407 15.2401 17.2153 14.7161C17.39 14.1922 17.1068 13.6259 16.5829 13.4512L15.9504 15.3486ZM12.6666 13.1999H11.6666C11.6666 13.6303 11.9421 14.0125 12.3504 14.1486L12.6666 13.1999ZM13.6666 8.18216C13.6666 7.62988 13.2189 7.18216 12.6666 7.18216C12.1144 7.18216 11.6666 7.62988 11.6666 8.18216H13.6666ZM16.5829 13.4512L12.9829 12.2512L12.3504 14.1486L15.9504 15.3486L16.5829 13.4512ZM13.6666 13.1999V8.18216H11.6666V13.1999H13.6666ZM21.2666 11.9999C21.2666 16.7495 17.4163 20.5999 12.6666 20.5999V22.5999C18.5209 22.5999 23.2666 17.8541 23.2666 11.9999H21.2666ZM12.6666 20.5999C7.917 20.5999 4.06665 16.7495 4.06665 11.9999H2.06665C2.06665 17.8541 6.81243 22.5999 12.6666 22.5999V20.5999ZM4.06665 11.9999C4.06665 7.25025 7.917 3.3999 12.6666 3.3999V1.3999C6.81243 1.3999 2.06665 6.14568 2.06665 11.9999H4.06665ZM12.6666 3.3999C17.4163 3.3999 21.2666 7.25025 21.2666 11.9999H23.2666C23.2666 6.14568 18.5209 1.3999 12.6666 1.3999V3.3999Z" fill="#D2D1D5"/>
</g>
</svg>
