<svg width="24" height="24" viewBox="0 0 24 24" fill="none" xmlns="http://www.w3.org/2000/svg">
<g id="help-square-contained">
<path id="Icon" d="M11.9999 16.7999V16.8421M9.60094 9.04523C9.60094 7.69471 10.6755 6.5999 12.0009 6.5999C13.3264 6.5999 14.4009 7.69471 14.4009 9.04523C14.4009 10.3957 13.3264 11.4906 12.0009 11.4906C12.0009 11.4906 11.9999 12.2204 11.9999 13.1208M21.5999 5.9999L21.5999 18C21.5999 19.9882 19.9881 21.6 17.9999 21.6H5.9999C4.01168 21.6 2.3999 19.9882 2.3999 18V5.9999C2.3999 4.01168 4.01168 2.3999 5.9999 2.3999H17.9999C19.9881 2.3999 21.5999 4.01168 21.5999 5.9999Z" stroke="#D2D1D5" stroke-width="2" stroke-linecap="round" stroke-linejoin="round"/>
</g>
</svg>
